<svg width="70" height="70" viewBox="0 0 70 70" fill="none" xmlns="http://www.w3.org/2000/svg">
<path d="M60.4216 23.6203L57.456 17.4215C56.6905 15.8203 55.2845 14.5788 53.5999 14.0172L39.7876 9.41314C36.6553 8.36904 33.2072 8.36904 30.0749 9.41314L16.2647 14.0172C14.578 14.5788 13.1719 15.8225 12.4064 17.4259L9.5856 23.3637C8.53931 25.1009 8.34189 27.1847 9.04381 29.0864C9.72159 30.929 11.1583 32.3547 12.9965 33.0259L12.9855 46.8755C12.9811 51.6091 15.9949 55.7942 20.4828 57.2902L30.0573 60.4817C31.6235 61.0037 33.2686 61.2647 34.9137 61.2647C36.5588 61.2647 38.2039 61.0037 39.77 60.4817L49.3533 57.2858C53.8346 55.792 56.8484 51.6156 56.8528 46.8909L56.8638 33.0281C58.7195 32.3766 60.1716 30.9531 60.8537 29.1018C61.5491 27.2198 61.356 25.1557 60.4216 23.6203ZM31.4633 13.5764C33.7007 12.8306 36.164 12.8306 38.3991 13.5764L47.717 16.6823L34.9466 20.9596L22.1498 16.6823L31.4633 13.5764ZM13.4439 25.4409L16.3547 19.3386C16.46 19.3935 31.834 24.5437 31.834 24.5437L28.2784 31.6901C27.7542 32.5631 26.6662 32.9667 25.7055 32.6421L14.5604 28.9285C13.9089 28.7113 13.3979 28.2156 13.1588 27.5707C12.9197 26.9259 12.9877 26.2196 13.4417 25.4431L13.4439 25.4409ZM21.8691 53.1291C19.1755 52.232 17.3681 49.7205 17.3702 46.8821L17.3812 34.4934L24.317 36.8053C27.265 37.788 30.4412 36.6144 32.1236 33.798L32.7334 32.5763L32.7224 56.6628C32.2903 56.5751 31.8647 56.4632 31.448 56.3228L21.8713 53.1313L21.8691 53.1291ZM47.9649 53.1269L38.3794 56.3228C37.9626 56.461 37.5371 56.5751 37.105 56.6628L37.1159 32.5455L37.8156 33.9494C39.0352 35.9849 41.1761 37.1497 43.4331 37.1497C44.1329 37.1497 44.8436 37.0378 45.5389 36.8053L52.4725 34.4955L52.4615 46.8909C52.4615 49.7249 50.6497 52.232 47.9605 53.1291L47.9649 53.1269ZM56.7388 27.5861C56.5085 28.2112 56.0127 28.6916 55.381 28.9022L44.1548 32.6443C43.1941 32.9667 42.1061 32.5675 41.663 31.8436L38.0328 24.5547C38.0328 24.5547 53.4003 19.3978 53.5056 19.3408L56.5611 25.7041C56.9055 26.2766 56.9691 26.9632 56.7388 27.5883V27.5861Z" fill="#292929"/>
</svg>
